<?xml version="1.0" standalone="no"?>
<!DOCTYPE svg PUBLIC "-//W3C//DTD SVG 20010904//EN"
 "http://www.w3.org/TR/2001/REC-SVG-20010904/DTD/svg10.dtd">
<svg version="1.0" xmlns="http://www.w3.org/2000/svg"
 width="64.000000pt" height="64.000000pt" viewBox="0 0 64.000000 64.000000"
 preserveAspectRatio="xMidYMid meet">

<g transform="translate(0.000000,64.000000) scale(0.100000,-0.100000)"
fill="#fff" stroke="none">
<path d="M382 587 c-28 -30 -28 -68 1 -95 30 -28 68 -28 95 1 28 30 28 68 -1
95 -30 28 -68 28 -95 -1z"/>
<path d="M200 398 c-6 -24 -13 -51 -16 -60 -4 -13 0 -18 15 -18 15 0 23 10 31
40 8 29 16 40 30 40 20 0 18 -11 -60 -293 l-19 -68 41 3 42 3 53 195 c29 107
53 196 53 198 0 1 -36 2 -80 2 l-79 0 -11 -42z"/>
<path d="M441 403 c-35 -134 -41 -166 -36 -184 3 -10 8 -28 11 -39 5 -18 1
-20 -40 -20 -39 0 -46 -3 -46 -20 0 -18 7 -20 70 -20 39 0 70 1 70 3 0 1 -7
27 -15 57 -12 45 -13 65 -3 108 6 28 15 52 20 52 4 0 8 -4 8 -10 0 -6 27 -10
60 -10 53 0 60 2 60 20 0 17 -7 20 -45 20 -43 0 -44 1 -55 40 -15 54 -45 56
-59 3z"/>
<path d="M50 260 c0 -18 7 -20 70 -20 63 0 70 2 70 20 0 18 -7 20 -70 20 -63
0 -70 -2 -70 -20z"/>
<path d="M90 180 c0 -17 7 -20 50 -20 43 0 50 3 50 20 0 17 -7 20 -50 20 -43
0 -50 -3 -50 -20z"/>
</g>
</svg>
