<?xml version="1.0" standalone="no"?>
<!DOCTYPE svg PUBLIC "-//W3C//DTD SVG 20010904//EN"
 "http://www.w3.org/TR/2001/REC-SVG-20010904/DTD/svg10.dtd">
<svg version="1.0" xmlns="http://www.w3.org/2000/svg"
 width="64.000000pt" height="64.000000pt" viewBox="0 0 64.000000 64.000000"
 preserveAspectRatio="xMidYMid meet">

<g transform="translate(0.000000,64.000000) scale(0.100000,-0.100000)"
fill="#fff" stroke="none">
<path d="M82 529 c-79 -51 -94 -167 -30 -236 25 -27 16 -43 -23 -43 -22 0 -29
-5 -29 -20 0 -16 7 -20 34 -20 18 0 39 7 46 15 7 8 16 15 21 15 5 0 55 -45
112 -99 l103 -100 137 137 c75 75 141 150 147 165 24 67 -3 149 -63 186 -63
39 -163 23 -202 -31 -14 -21 -17 -21 -26 -6 -33 57 -162 78 -227 37z m176 -44
c17 -14 33 -39 37 -55 9 -41 41 -41 50 0 10 45 58 80 109 80 49 0 80 -19 102
-62 30 -58 16 -87 -107 -219 l-113 -120 -93 93 c-88 87 -92 93 -76 110 16 18
19 16 75 -39 l58 -57 28 27 c22 21 38 27 75 27 40 0 47 3 47 20 0 18 -7 20
-57 20 -39 0 -62 -5 -75 -17 -18 -16 -21 -14 -73 37 l-55 54 -33 -32 c-31 -30
-35 -32 -48 -16 -8 10 -14 39 -14 66 0 43 4 53 33 79 42 37 89 39 130 4z"/>
</g>
</svg>
