<?xml version="1.0" standalone="no"?>
<!DOCTYPE svg PUBLIC "-//W3C//DTD SVG 20010904//EN"
 "http://www.w3.org/TR/2001/REC-SVG-20010904/DTD/svg10.dtd">
<svg version="1.0" xmlns="http://www.w3.org/2000/svg"
 width="64.000000pt" height="64.000000pt" viewBox="0 0 64.000000 64.000000"
 preserveAspectRatio="xMidYMid meet">

<g transform="translate(0.000000,64.000000) scale(0.100000,-0.100000)"
fill="#fff" stroke="none">
<path d="M275 576 c-102 -44 -124 -181 -41 -254 140 -123 338 67 219 209 -47
55 -116 72 -178 45z m169 -102 c27 -70 -33 -154 -109 -154 -76 0 -136 84 -109
154 9 24 209 24 218 0z"/>
<path d="M90 140 l0 -100 40 0 40 0 0 80 0 80 180 0 180 0 0 -80 c0 -73 2 -80
20 -80 19 0 20 7 20 100 l0 100 -240 0 -240 0 0 -100z"/>
</g>
</svg>
