<?xml version="1.0" standalone="no"?>
<!DOCTYPE svg PUBLIC "-//W3C//DTD SVG 20010904//EN"
 "http://www.w3.org/TR/2001/REC-SVG-20010904/DTD/svg10.dtd">
<svg version="1.0" xmlns="http://www.w3.org/2000/svg"
 width="64.000000pt" height="64.000000pt" viewBox="0 0 64.000000 64.000000"
 preserveAspectRatio="xMidYMid meet">

<g transform="translate(0.000000,64.000000) scale(0.100000,-0.100000)"
fill="#fff" stroke="none">
<path d="M92 477 c-28 -30 -28 -68 1 -95 30 -28 68 -28 95 1 28 30 28 68 -1
95 -30 28 -68 28 -95 -1z"/>
<path d="M320 370 l0 -50 -39 0 -39 0 24 -92 c13 -51 24 -96 24 -100 0 -5 -17
-8 -39 -8 l-39 0 -24 98 -24 97 -41 3 -41 3 24 -93 c13 -51 24 -96 24 -100 0
-5 -11 -8 -25 -8 -18 0 -25 -5 -25 -20 0 -19 7 -20 260 -20 253 0 260 1 260
20 0 19 -7 20 -122 20 l-122 0 39 40 c37 38 43 40 97 40 l58 0 0 40 0 40 -73
0 c-72 0 -73 -1 -112 -40 -21 -22 -42 -40 -46 -40 -4 0 -11 18 -17 40 l-10 40
34 0 34 0 0 70 c0 63 -2 70 -20 70 -17 0 -20 -7 -20 -50z"/>
</g>
</svg>
