<?xml version="1.0" standalone="no"?>
<!DOCTYPE svg PUBLIC "-//W3C//DTD SVG 20010904//EN"
 "http://www.w3.org/TR/2001/REC-SVG-20010904/DTD/svg10.dtd">
<svg version="1.0" xmlns="http://www.w3.org/2000/svg"
 width="64.000000pt" height="64.000000pt" viewBox="0 0 64.000000 64.000000"
 preserveAspectRatio="xMidYMid meet">

<g transform="translate(0.000000,64.000000) scale(0.100000,-0.100000)"
fill="#f9ac54" stroke="none">
<path d="M40 340 l0 -220 80 0 80 0 0 -60 c0 -79 16 -79 95 0 l60 59 123 1
122 0 0 220 c0 213 -1 220 -20 220 -19 0 -20 -7 -20 -200 l0 -200 -112 0
c-108 0 -113 -1 -140 -27 l-28 -27 0 27 0 27 -80 0 -80 0 0 200 0 200 -40 0
-40 0 0 -220z"/>
<path d="M170 415 l0 -75 56 0 c51 0 55 -2 50 -20 -3 -11 -9 -29 -12 -40 -4
-15 -1 -20 15 -20 27 0 41 52 41 153 l0 77 -75 0 -75 0 0 -75z"/>
<path d="M360 415 l0 -75 56 0 c51 0 55 -2 50 -20 -3 -11 -9 -29 -12 -40 -4
-15 -1 -20 15 -20 27 0 41 52 41 153 l0 77 -75 0 -75 0 0 -75z"/>
</g>
</svg>
