<?xml version="1.0" standalone="no"?>
<!DOCTYPE svg PUBLIC "-//W3C//DTD SVG 20010904//EN"
 "http://www.w3.org/TR/2001/REC-SVG-20010904/DTD/svg10.dtd">
<svg version="1.0" xmlns="http://www.w3.org/2000/svg"
 width="64.000000pt" height="64.000000pt" viewBox="0 0 64.000000 64.000000"
 preserveAspectRatio="xMidYMid meet">

<g transform="translate(0.000000,64.000000) scale(0.100000,-0.100000)"
fill="#fff" stroke="none">
<path d="M215 586 c-38 -17 -64 -46 -74 -82 -6 -22 -14 -30 -37 -32 -46 -5
-54 -25 -54 -137 0 -90 3 -106 23 -136 12 -19 35 -40 50 -47 20 -10 27 -20 27
-43 0 -26 3 -29 30 -29 27 0 30 3 30 30 l0 30 120 0 120 0 0 -30 c0 -23 4 -30
20 -30 16 0 20 7 20 37 0 27 8 45 28 66 27 28 27 30 30 177 4 166 -4 197 -58
225 -38 20 -231 20 -275 1z m270 -51 c24 -23 25 -29 25 -165 0 -136 -1 -142
-25 -165 -23 -24 -29 -25 -162 -25 -183 1 -193 9 -193 159 0 90 0 91 25 91 24
0 25 -2 25 -75 0 -68 2 -75 20 -75 19 0 20 7 20 117 0 106 2 119 22 140 20 21
30 23 120 23 92 0 101 -2 123 -25z"/>
</g>
</svg>
