<?xml version="1.0" standalone="no"?>
<!DOCTYPE svg PUBLIC "-//W3C//DTD SVG 20010904//EN"
 "http://www.w3.org/TR/2001/REC-SVG-20010904/DTD/svg10.dtd">
<svg version="1.0" xmlns="http://www.w3.org/2000/svg"
 width="64.000000pt" height="64.000000pt" viewBox="0 0 64.000000 64.000000"
 preserveAspectRatio="xMidYMid meet">

<g transform="translate(0.000000,64.000000) scale(0.100000,-0.100000)"
fill="#fff" stroke="none">
<path d="M120 320 l0 -200 40 0 40 0 0 90 0 90 120 0 120 0 0 -90 0 -90 40 0
40 0 0 200 0 200 -40 0 -40 0 0 -90 0 -90 -120 0 -120 0 0 90 0 90 -40 0 -40
0 0 -200z"/>
<path d="M0 320 l0 -140 40 0 40 0 0 140 0 140 -40 0 -40 0 0 -140z"/>
<path d="M560 320 l0 -140 40 0 40 0 0 140 0 140 -40 0 -40 0 0 -140z"/>
</g>
</svg>
